# xmcd
#
# Track frame offsets: 
#        150
#        16152
#        38244
#        58364
#        85009
#        109309
#        131474
#        149496
#        174606
#        189859
#        205396
#        220886
#        244015
#        273683
#
# Disc length: 3956 seconds
#
# Revision: 2
# Processed by: cddbd v1.5.2PL0 Copyright (c) Steve Scherf et al.
# Submitted via: ExactAudioCopyFreeDBPlugin 1.0
#
DISCID=d10f720e
DTITLE=柏菲群星 - 柏菲精选(一)
DYEAR=1900
DGENRE=Pop
TTITLE0=长亭外  ——  古璇
TTITLE1=梅花三弄 —— 古璇
TTITLE2=相见欢 ——李烁
TTITLE3=叹十声 ——李烁
TTITLE4=葬心 —— 伽菲珈而
TTITLE5=一个真实的故事 ——伽菲珈而
TTITLE6=燕子 —— HIFI年代
TTITLE7=怀念战友 —— HIFI年代
TTITLE8=翠湖寒 —— 窦鹏
TTITLE9=四季歌 —— 姜苏
TTITLE10=几许风雨 —— 梁玉嵘
TTITLE11=渔舟唱晚 —— 梁玉嵘
TTITLE12=送别 —— 崔峥嵘
TTITLE13=烛光里的妈妈 —— 崔峥嵘
EXTD=
EXTT0=
EXTT1=
EXTT2=
EXTT3=
EXTT4=
EXTT5=
EXTT6=
EXTT7=
EXTT8=
EXTT9=
EXTT10=
EXTT11=
EXTT12=
EXTT13=
PLAYORDER=
